<svg width="342" height="93" viewBox="0 0 342 93" fill="none" xmlns="http://www.w3.org/2000/svg">
<path d="M306.255 12.3743L304.169 19.7054C298.347 18.5383 294.161 19.4898 291.485 20.3335V50.6129H282.066V14.9943C282.073 14.9943 291.731 9.24777 306.255 12.3743ZM123.326 11.5631L108.407 50.5496H98.6421L83.7231 11.5631H93.717L103.48 41.0177L113.244 11.5631H123.326ZM145.956 43.1157C151.504 43.1157 155.955 41.6321 159.24 40.0662V47.6421C155.645 49.5947 150.807 51.1536 144.554 51.1536C136.819 51.1536 126.432 48.0288 126.432 31.4739C126.432 19.8423 131.119 10.8581 143.851 10.8581C156.038 10.8581 161.268 19.9946 161.268 29.7575C161.268 31.4756 161.268 33.0414 161.111 34.6004H136.04C136.585 42.101 141.429 43.1157 145.956 43.1157ZM143.844 18.5195C139.239 18.5195 136.58 21.172 136.028 28.1283H151.738C151.267 23.2067 148.844 18.5195 143.844 18.5195ZM186.16 10.9402C197.017 10.9402 203.42 16.9537 203.427 27.1135V50.5513H194.132V26.3281C194.132 22.8901 193.428 19.2177 184.911 19.2177C182.255 19.2177 179.757 19.5291 177.645 19.921V50.5513H168.274V15.2407C168.584 15.0832 176.244 10.9402 186.16 10.9402ZM233.246 19.6164H224.031V38.8341C224.031 42.267 225.356 43.1294 228.794 43.1294C230.589 43.1294 231.995 42.8111 233.246 42.2669V50.0037C231.374 50.784 229.34 51.1776 227.076 51.1776C219.344 51.1776 214.657 46.3312 214.657 38.2831V19.6113H208.094V11.5631H214.657V0H224.031V11.5631H233.246V19.6164ZM275.31 11.5631V32.8908C275.31 44.377 268.75 51.1759 257.666 51.1759C246.658 51.1759 240.098 44.377 240.098 32.8908V11.5631H249.548V34.1401C249.548 40.3863 251.887 42.9703 257.666 42.9703C263.522 42.9703 265.862 40.3863 265.862 34.1401V11.5631H275.31ZM326.688 43.1157C332.235 43.1157 336.687 41.6321 339.97 40.0662V47.6421C336.377 49.5947 331.532 51.1536 325.286 51.1536C317.551 51.1536 307.164 48.0288 307.164 31.4739C307.164 19.8423 311.849 10.8581 324.583 10.8581C336.769 10.8581 342 19.9946 342 29.7575C342 31.4756 342 33.0414 341.841 34.6004H316.771C317.315 42.101 322.161 43.1157 326.688 43.1157ZM324.583 18.5195C319.969 18.5195 317.31 21.172 316.766 28.1283H332.475C332.004 23.2067 329.583 18.5195 324.583 18.5195Z" fill="white"/>
<path d="M24.1736 12.499L22.0875 19.8318C16.2692 18.6647 12.0868 19.6162 9.41205 20.4599V50.7393H0V15.119C0 15.119 9.65847 9.37076 24.1736 12.499Z" fill="white"/>
<path d="M56.98 40.2227V47.8277C53.3743 49.7871 48.5126 51.3529 42.2441 51.3529C34.4869 51.3529 24.0601 48.2213 24.0601 31.591C24.0601 19.903 28.7627 10.8828 41.5408 10.8828C53.7662 10.8828 59.0215 20.0604 59.0215 29.8661C59.0215 31.591 59.0215 33.1586 58.8624 34.7312H33.6997C34.2456 42.2592 39.1074 43.2808 43.6508 43.2808C49.2227 43.2859 53.6909 41.7954 56.98 40.2227ZM33.6997 28.2061H49.4675C49.0054 23.2742 46.5685 18.5767 41.5494 18.5767C36.9169 18.5767 34.2525 21.2361 33.6997 28.2061Z" fill="white"/>
<path d="M77.7395 19.6501C77.7405 22.7456 75.2323 25.2561 72.1368 25.258C69.0401 25.258 66.5298 22.7476 66.5298 19.651C66.5298 16.5543 69.0401 14.0439 72.1368 14.0439C75.2317 14.0458 77.7395 16.5552 77.7395 19.6501Z" fill="#FA4865"/>
<path d="M77.7395 41.9812C77.7405 45.0767 75.2323 47.5871 72.1368 47.589C69.0401 47.589 66.5298 45.0787 66.5298 41.982C66.5298 38.8853 69.0401 36.375 72.1368 36.375C75.2317 36.3769 77.7395 38.8863 77.7395 41.9812Z" fill="#FA4865"/>
<path d="M275.108 92.0504H271.678L281.599 65.0312H284.976L294.897 92.0504H291.467L283.393 69.3058H283.182L275.108 92.0504ZM276.374 81.496H290.201V84.3985H276.374V81.496Z" fill="white"/>
<path d="M299.106 92.0504V65.0312H308.235C310.355 65.0312 312.088 65.4138 313.433 66.179C314.788 66.9354 315.791 67.9601 316.441 69.253C317.092 70.5459 317.418 71.9883 317.418 73.5803C317.418 75.1722 317.092 76.619 316.441 77.9207C315.799 79.2224 314.805 80.2603 313.46 81.0343C312.114 81.7995 310.39 82.1821 308.288 82.1821H301.744V79.2796H308.183C309.634 79.2796 310.799 79.029 311.679 78.5276C312.558 78.0263 313.196 77.3491 313.592 76.4959C313.996 75.634 314.199 74.6621 314.199 73.5803C314.199 72.4985 313.996 71.531 313.592 70.6778C313.196 69.8247 312.554 69.1562 311.666 68.6725C310.777 68.18 309.599 67.9337 308.13 67.9337H302.378V92.0504H299.106Z" fill="white"/>
<path d="M322.688 92.0504V65.0312H331.818C333.937 65.0312 335.67 65.4138 337.016 66.179C338.37 66.9354 339.373 67.9601 340.024 69.253C340.675 70.5459 341 71.9883 341 73.5803C341 75.1722 340.675 76.619 340.024 77.9207C339.382 79.2224 338.388 80.2603 337.042 81.0343C335.696 81.7995 333.973 82.1821 331.87 82.1821H325.327V79.2796H331.765C333.216 79.2796 334.382 79.029 335.261 78.5276C336.141 78.0263 336.778 77.3491 337.174 76.4959C337.579 75.634 337.781 74.6621 337.781 73.5803C337.781 72.4985 337.579 71.531 337.174 70.6778C336.778 69.8247 336.136 69.1562 335.248 68.6725C334.36 68.18 333.181 67.9337 331.712 67.9337H325.96V92.0504H322.688Z" fill="white"/>
</svg>
