<?xml version="1.0" encoding="utf-8"?>
<!-- Generator: Adobe Illustrator 27.4.1, SVG Export Plug-In . SVG Version: 6.00 Build 0)  -->
<svg version="1.1" id="Layer_1" xmlns="http://www.w3.org/2000/svg" xmlns:xlink="http://www.w3.org/1999/xlink" x="0px" y="0px"
	 viewBox="0 0 1898.3 180" style="enable-background:new 0 0 1898.3 180;" xml:space="preserve">
<style type="text/css">
	.st0{fill:#F16722;}
	.st1{fill:#B2B2B2;}
	.st2{fill:#868686;}
	.st3{fill:#3D3D3D;}
</style>
<g>
	<g id="Group_866" transform="translate(41.128 0.037)">
		<rect id="Rectangle_2547" x="330.4" y="157.3" class="st0" width="22.4" height="22.6"/>
		<rect id="Rectangle_2548" x="305" y="157.3" class="st0" width="22.4" height="22.6"/>
		<rect id="Rectangle_2549" x="279.6" y="157.3" class="st0" width="22.4" height="22.6"/>
		<rect id="Rectangle_2550" x="254.2" y="157.3" class="st0" width="22.4" height="22.6"/>
		<rect id="Rectangle_2551" x="228.7" y="157.3" class="st0" width="22.4" height="22.6"/>
		<rect id="Rectangle_2552" x="203.3" y="157.3" class="st0" width="22.4" height="22.6"/>
		<rect id="Rectangle_2553" x="330.4" y="131.1" class="st0" width="22.4" height="22.6"/>
		<rect id="Rectangle_2554" x="305" y="131.1" class="st0" width="22.4" height="22.6"/>
		<rect id="Rectangle_2555" x="279.6" y="131.1" class="st0" width="22.4" height="22.6"/>
		<rect id="Rectangle_2556" x="254.2" y="131.1" class="st0" width="22.4" height="22.6"/>
		<rect id="Rectangle_2557" x="228.7" y="131.1" class="st0" width="22.4" height="22.6"/>
		<rect id="Rectangle_2558" x="203.3" y="131.1" class="st0" width="22.4" height="22.6"/>
		<rect id="Rectangle_2559" x="330.4" y="104.9" class="st0" width="22.4" height="22.6"/>
		<rect id="Rectangle_2560" x="305" y="104.9" class="st0" width="22.4" height="22.6"/>
		<rect id="Rectangle_2561" x="279.6" y="104.9" class="st0" width="22.4" height="22.6"/>
		<rect id="Rectangle_2562" x="254.2" y="104.9" class="st0" width="22.4" height="22.6"/>
		<rect id="Rectangle_2563" x="228.7" y="104.9" class="st0" width="22.4" height="22.6"/>
		<rect id="Rectangle_2564" x="203.3" y="104.9" class="st0" width="22.4" height="22.6"/>
		<rect id="Rectangle_2565" x="330.4" y="78.8" class="st0" width="22.4" height="22.6"/>
		<rect id="Rectangle_2566" x="305" y="78.8" class="st0" width="22.4" height="22.6"/>
		<rect id="Rectangle_2567" x="355.9" y="78.8" class="st0" width="22.4" height="22.6"/>
		<rect id="Rectangle_2568" x="279.6" y="78.8" class="st0" width="22.4" height="22.6"/>
		<rect id="Rectangle_2569" x="254.2" y="78.8" class="st0" width="22.4" height="22.6"/>
		<rect id="Rectangle_2570" x="228.7" y="78.8" class="st0" width="22.4" height="22.6"/>
		<rect id="Rectangle_2571" x="203.3" y="78.8" class="st0" width="22.4" height="22.6"/>
		<rect id="Rectangle_2572" x="177.9" y="78.8" class="st0" width="22.4" height="22.6"/>
		<rect id="Rectangle_2573" x="330.4" y="52.5" class="st0" width="22.4" height="22.6"/>
		<rect id="Rectangle_2574" x="305" y="52.5" class="st0" width="22.4" height="22.6"/>
		<rect id="Rectangle_2575" x="279.6" y="52.5" class="st0" width="22.4" height="22.6"/>
		<rect id="Rectangle_2576" x="254.2" y="52.5" class="st0" width="22.4" height="22.6"/>
		<rect id="Rectangle_2577" x="228.7" y="52.5" class="st0" width="22.4" height="22.6"/>
		<rect id="Rectangle_2578" x="203.3" y="52.5" class="st0" width="22.4" height="22.6"/>
		<rect id="Rectangle_2579" x="305" y="26.3" class="st0" width="22.4" height="22.6"/>
		<rect id="Rectangle_2580" x="279.6" y="26.3" class="st0" width="22.4" height="22.6"/>
		<rect id="Rectangle_2581" x="254.2" y="26.3" class="st0" width="22.4" height="22.6"/>
		<rect id="Rectangle_2582" x="228.7" y="26.3" class="st0" width="22.4" height="22.6"/>
		<rect id="Rectangle_2583" x="279.6" y="0.1" class="st0" width="22.4" height="22.6"/>
		<rect id="Rectangle_2584" x="254.2" y="0.1" class="st0" width="22.4" height="22.6"/>
	</g>
	<rect id="Rectangle_2630" x="193.6" y="157.3" class="st1" width="22.4" height="22.6"/>
	<rect id="Rectangle_2631" x="165.8" y="157.3" class="st1" width="22.4" height="22.6"/>
	<rect id="Rectangle_2632" x="139.1" y="159" class="st1" width="19.1" height="19.3"/>
	<rect id="Rectangle_2633" x="193.6" y="131.1" class="st1" width="22.4" height="22.6"/>
	<rect id="Rectangle_2634" x="165.8" y="131.1" class="st1" width="22.4" height="22.6"/>
	<rect id="Rectangle_2635" x="193.6" y="105" class="st1" width="22.4" height="22.6"/>
	<rect id="Rectangle_2636" x="165.8" y="105" class="st1" width="22.4" height="22.6"/>
	<rect id="Rectangle_2637" x="165.8" y="78.8" class="st1" width="22.4" height="22.6"/>
	<rect id="Rectangle_2638" x="138.3" y="79.9" class="st1" width="20.1" height="20.3"/>
	<rect id="Rectangle_2639" x="111.2" y="81.2" class="st1" width="17.7" height="17.9"/>
	<rect id="Rectangle_2640" x="83.1" y="82.3" class="st1" width="15.5" height="15.7"/>
	<rect id="Rectangle_2641" x="55.9" y="83" class="st1" width="14.1" height="14.3"/>
	<rect id="Rectangle_2642" x="28" y="83.7" class="st1" width="12.6" height="12.7"/>
	<rect id="Rectangle_2643" y="84.4" class="st1" width="11.3" height="11.4"/>
	<rect id="Rectangle_2644" x="138.3" y="106.1" class="st1" width="20.1" height="20.3"/>
	<rect id="Rectangle_2645" x="111.2" y="107.3" class="st1" width="17.7" height="17.9"/>
	<rect id="Rectangle_2646" x="83.1" y="108.4" class="st1" width="15.5" height="15.7"/>
	<rect id="Rectangle_2647" x="55.9" y="109.1" class="st1" width="14.1" height="14.3"/>
	<rect id="Rectangle_2648" x="138.3" y="132.3" class="st1" width="20.1" height="20.3"/>
	<rect id="Rectangle_2649" x="111.2" y="133.5" class="st1" width="17.7" height="17.9"/>
	<rect id="Rectangle_2650" x="83.1" y="134.6" class="st1" width="15.5" height="15.7"/>
	<rect id="Rectangle_2651" x="111.2" y="159.7" class="st1" width="17.7" height="17.9"/>
	<rect id="Rectangle_2652" x="83.1" y="160.8" class="st1" width="15.5" height="15.7"/>
	<rect id="Rectangle_2653" x="55.9" y="161.5" class="st1" width="14.1" height="14.3"/>
	<rect id="Rectangle_2654" x="138.3" y="53.7" class="st1" width="20.1" height="20.3"/>
	<rect id="Rectangle_2655" x="111.2" y="54.9" class="st1" width="17.7" height="17.9"/>
	<rect id="Rectangle_2656" x="83.1" y="56.1" class="st1" width="15.5" height="15.7"/>
	<rect id="Rectangle_2657" x="55.9" y="56.8" class="st1" width="14.1" height="14.3"/>
	<rect id="Rectangle_2658" x="138.3" y="27.5" class="st1" width="20.1" height="20.3"/>
	<rect id="Rectangle_2659" x="111.2" y="28.7" class="st1" width="17.7" height="17.9"/>
	<rect id="Rectangle_2660" x="83.1" y="29.8" class="st1" width="15.5" height="15.7"/>
	<rect id="Rectangle_2661" x="55.9" y="30.5" class="st1" width="14.1" height="14.3"/>
	<rect id="Rectangle_2662" x="28" y="31.3" class="st1" width="12.6" height="12.7"/>
	<rect id="Rectangle_2663" x="138.3" y="1.3" class="st1" width="20.1" height="20.3"/>
	<rect id="Rectangle_2664" x="111.2" y="2.5" class="st1" width="17.7" height="17.9"/>
	<rect id="Rectangle_2665" x="83.1" y="3.6" class="st1" width="15.5" height="15.7"/>
	<rect id="Rectangle_2666" x="193.6" y="52.5" class="st1" width="22.4" height="22.6"/>
	<rect id="Rectangle_2667" x="165.8" y="52.5" class="st1" width="22.4" height="22.6"/>
	<rect id="Rectangle_2668" x="193.6" y="26.3" class="st1" width="22.4" height="22.6"/>
	<rect id="Rectangle_2669" x="165.8" y="26.3" class="st1" width="22.4" height="22.6"/>
	<rect id="Rectangle_2670" x="193.6" y="0.2" class="st1" width="22.4" height="22.6"/>
	<rect id="Rectangle_2671" x="220.2" y="26.3" class="st1" width="22.4" height="22.6"/>
	<rect id="Rectangle_2672" x="220.2" y="0.2" class="st1" width="22.4" height="22.6"/>
	<rect id="Rectangle_2673" x="246.7" class="st1" width="22.4" height="22.6"/>
	<rect id="Rectangle_2674" x="165.8" y="0.2" class="st1" width="22.4" height="22.6"/>
	<g>
		<path class="st2" d="M1873.3,56.8c0-6.9,5.6-12.5,12.5-12.5c6.9,0,12.5,5.6,12.5,12.5c0,6.9-5.6,12.5-12.5,12.5
			C1878.9,69.3,1873.3,63.7,1873.3,56.8z M1895.2,56.8c0-5.2-4.2-9.4-9.4-9.4c-5.2,0-9.4,4.2-9.4,9.4s4.2,9.4,9.4,9.4
			C1891,66.2,1895.2,62,1895.2,56.8z M1881.4,50.9h5.8c1.7,0,3.7,1.3,3.7,3.7c0,1.6-0.8,2.7-1.9,3.3l2.3,4.5h-3l-1.9-3.9h-2.3v3.9
			h-2.7V50.9z M1886.2,56.5c0.8,0,1.7-0.6,1.7-1.9c0-1.3-1-1.8-1.6-1.8h-2.2v3.7H1886.2z"/>
	</g>
	<path id="Path_269" class="st3" d="M474.3,180V78.8h85.8c15,0,22.5,6.5,22.5,19.6v22.5c0,13.1-7.5,19.6-22.5,19.6h-62.9V180H474.3z
		 M549.6,96h-52.4v27.3h52.4c2.6,0.2,5.2-0.2,7.6-1.2c2.1-1.6,3.3-4.3,2.9-7v-10.9c0.3-2.7-0.8-5.3-2.9-7
		C554.8,96.3,552.2,95.8,549.6,96L549.6,96z"/>
	<path id="Path_270" class="st3" d="M608.9,180V78.8h85.8c15,0,22.5,6.5,22.5,19.6v23.7c0,13.1-7.5,19.6-22.5,19.6h-13.2l46.2,38.2
		h-33.4L654,141.7h-22.1V180H608.9z M684.1,96h-52.4v28.4h52.4c2.6,0.2,5.2-0.2,7.6-1.2c2.1-1.6,3.3-4.3,2.9-6.9v-12.2
		c0.3-2.7-0.8-5.3-2.9-6.9C689.3,96.2,686.7,95.8,684.1,96z"/>
	<path id="Path_271" class="st3" d="M752.7,102.7c0-9.4,1.7-15.7,5.2-19s10-4.9,19.6-4.9h73.8c9.6,0,16.1,1.6,19.6,4.9
		s5.2,9.6,5.2,19V156c0,9.4-1.7,15.7-5.2,19s-10,4.9-19.6,4.9h-73.8c-9.6,0-16.1-1.6-19.6-4.9c-3.5-3.3-5.2-9.6-5.2-19V102.7z
		 M776,160.9h76.9V96.8H776V160.9z"/>
	<path id="Path_272" class="st3" d="M915.5,180V78.8h85.8c15,0,22.5,6.5,22.5,19.6v22.5c0,13.1-7.5,19.6-22.5,19.6h-62.9V180H915.5z
		 M990.8,96h-52.4v27.3h52.4c2.6,0.2,5.2-0.2,7.6-1.2c2.1-1.6,3.3-4.3,2.9-7v-10.9c0.3-2.7-0.8-5.3-2.9-7
		C996,96.3,993.4,95.8,990.8,96z"/>
	<path id="Path_279" class="st1" d="M1136.8,96.4H1071v21.8h62.7c9.6,0,16.2,1.6,19.7,4.9c3.6,3.3,5.4,9.6,5.3,19V156
		c0,9.4-1.8,15.7-5.3,19s-10.1,4.9-19.7,4.9h-62c-9.6,0-16.1-1.6-19.7-4.9c-3.5-3.3-5.3-9.6-5.3-19v-7l20.6-0.1v12h70.9v-23.1h-62.6
		c-9.6,0-16.1-1.6-19.6-4.9c-3.5-3.3-5.2-9.6-5.2-19v-11.2c0-9.4,1.7-15.7,5.2-19s10-4.9,19.6-4.9h56.9c6.8-0.7,13.6,1,19.3,4.7
		c3.7,3.1,5.5,9,5.5,17.4v7.1h-20.6L1136.8,96.4z"/>
	<path id="Path_280" class="st1" d="M1243.9,96.8V180h-23.3V96.8h-46v-18h115.5v18H1243.9z"/>
	<path id="Path_281" class="st1" d="M1309,180V78.8h85.8c15,0,22.5,6.5,22.5,19.6v23.7c0,13.1-7.5,19.6-22.5,19.6h-13.2l46.2,38.2
		h-33.4l-40.3-38.2H1332V180H1309z M1384.3,96h-52.4v28.4h52.4c2.6,0.2,5.2-0.2,7.6-1.2c2.1-1.6,3.3-4.3,2.9-6.9v-12.2
		c0.3-2.7-0.8-5.3-2.9-6.9C1389.5,96.2,1386.9,95.8,1384.3,96L1384.3,96z"/>
	<path id="Path_282" class="st1" d="M1454.9,180V78.8h102.5V96h-79.2v22.6h46.1v17.2h-46.1v25.1h80.2v19L1454.9,180L1454.9,180z"/>
	<path id="Path_283" class="st1" d="M1572.5,180l56.7-101.2h22.5l57.5,101.2H1683l-12-22.1h-63.5l-11.6,22.1H1572.5z M1617.4,139.5
		h43.8l-21.5-41.2L1617.4,139.5z"/>
	<path id="Path_284" class="st1" d="M1731.5,180V78.8h18.8l47.1,61.3l46.2-61.3h18.6V180h-21.5v-62.6c0.1-3.6,0.3-7.2,0.8-10.8
		c-1.7,3.7-3.6,7.2-5.8,10.6l-37.6,50.6h-4.6l-37.6-50.8c-2.4-3.2-4.5-6.7-6-10.4c0.4,4.1,0.6,7.6,0.6,10.8V180H1731.5L1731.5,180z"
		/>
</g>
</svg>
